Jump_normalized_pl13_filtered_grf
version=1
nRows=12
nColumns=37
inDegrees=yes
endheader
time		1_ground_force_vx		1_ground_force_vy		1_ground_force_vz		1_ground_force_px		1_ground_force_py		1_ground_force_pz		1_ground_torque_x		1_ground_torque_y		1_ground_torque_z		2_ground_force_vx		2_ground_force_vy		2_ground_force_vz		2_ground_force_px		2_ground_force_py		2_ground_force_pz		2_ground_torque_x		2_ground_torque_y		2_ground_torque_z		3_ground_force_vx		3_ground_force_vy		3_ground_force_vz		3_ground_force_px		3_ground_force_py		3_ground_force_pz		3_ground_torque_x		3_ground_torque_y		3_ground_torque_z		4_ground_force_vx		4_ground_force_vy		4_ground_force_vz		4_ground_force_px		4_ground_force_py		4_ground_force_pz		4_ground_torque_x		4_ground_torque_y		4_ground_torque_z		
1.077833		-0.000000		0.000000		0.000000		0.163167		0.000000		0.201347		0.000000		0.000000		-0.000000		-0.000000		0.000000		0.000000		-0.130545		0.000000		0.244507		0.000000		-0.000000		0.000000		16.207329		168.984495		255.097225		0.374152		1.309131		1.918561		-0.862292		-8.990624		-13.572152		-45.385600		317.902752		455.511766		-0.265718		1.309227		1.929808		-2.536764		17.768709		25.460197		
1.080990		-0.000000		0.000000		0.000000		0.163167		0.000000		0.201347		0.000000		0.000000		-0.000000		-0.000000		-0.000000		-0.000000		-0.130545		0.000000		0.244507		-0.000000		0.000000		-0.000000		16.509272		158.755102		239.669984		0.374179		1.309194		1.918587		-0.878759		-8.450257		-12.757215		-45.131342		307.995956		454.700581		-0.265701		1.309261		1.929731		-2.542289		17.349687		25.613691		
1.084146		0.000000		-0.000000		-0.000000		0.163167		0.000000		0.201347		-0.000000		-0.000000		0.000000		-0.000000		-0.000000		-0.000000		-0.130545		0.000000		0.244507		-0.000000		0.000000		-0.000000		17.134642		148.490190		223.208568		0.374215		1.309271		1.918619		-0.914012		-7.920886		-11.906574		-45.016366		298.337084		453.914816		-0.265682		1.309296		1.929631		-2.554376		16.928603		25.756611		
1.087303		0.000000		-0.000000		-0.000000		0.163167		0.000000		0.201347		-0.000000		-0.000000		0.000000		-0.000000		-0.000000		-0.000000		-0.130545		0.000000		0.244507		-0.000000		0.000000		-0.000000		17.997032		138.224855		205.976596		0.374254		1.309355		1.918654		-0.964300		-7.406205		-11.036397		-45.000076		288.962748		453.152092		-0.265662		1.309330		1.929505		-2.571230		16.510834		25.892362		
1.090460		0.000000		-0.000000		-0.000000		0.163167		0.000000		0.201347		-0.000000		-0.000000		0.000000		0.000000		-0.000000		-0.000000		-0.130545		0.000000		0.244507		-0.000000		0.000000		-0.000000		18.952280		127.886789		188.196481		0.374293		1.309441		1.918688		-1.022302		-6.898311		-10.151458		-45.011700		279.888182		452.330408		-0.265642		1.309361		1.929352		-2.589174		16.099789		26.019059		
1.093616		0.000000		-0.000000		-0.000000		0.163167		0.000000		0.201347		-0.000000		-0.000000		0.000000		0.000000		-0.000000		-0.000000		-0.130545		0.000000		0.244507		-0.000000		0.000000		-0.000000		19.836738		117.264947		169.983920		0.374321		1.309520		1.918707		-1.078559		-6.375874		-9.242280		-44.971506		271.098358		451.291204		-0.265627		1.309388		1.929178		-2.603673		15.695516		26.127987		
1.096773		0.000000		-0.000000		-0.000000		0.163167		0.000000		0.201347		-0.000000		-0.000000		0.000000		0.000000		0.000000		0.000000		-0.130545		0.000000		0.244507		0.000000		-0.000000		0.000000		20.507219		106.045990		151.339915		0.374336		1.309584		1.918705		-1.123193		-5.808174		-8.288932		-44.817920		262.543188		449.823880		-0.265616		1.309413		1.928988		-2.610853		15.294352		26.204344		
1.099929		-0.000000		0.000000		0.000000		0.163167		0.000000		0.201347		0.000000		0.000000		-0.000000		0.000000		0.000000		0.000000		-0.130545		0.000000		0.244507		0.000000		-0.000000		0.000000		20.884029		93.928710		132.196493		0.374336		1.309626		1.918670		-1.148512		-5.165581		-7.270107		-44.518507		254.163938		447.700406		-0.265614		1.309438		1.928788		-2.608282		14.891130		26.230188		
1.103086		-0.000000		0.000000		0.000000		0.163167		0.000000		0.201347		0.000000		0.000000		-0.000000		0.000000		0.000000		0.000000		-0.130545		0.000000		0.244507		0.000000		-0.000000		0.000000		20.978836		80.774433		112.520173		0.374323		1.309640		1.918592		-1.151118		-4.432147		-6.174059		-44.079895		245.908392		444.717977		-0.265624		1.309466		1.928580		-2.595831		14.481348		26.189096		
1.106242		-0.000000		0.000000		0.000000		0.163167		0.000000		0.201347		0.000000		0.000000		-0.000000		-0.000000		0.000000		0.000000		-0.130545		0.000000		0.244507		0.000000		-0.000000		0.000000		20.891984		66.750478		92.454679		0.374306		1.309632		1.918480		-1.132011		-3.616899		-5.009692		-43.550274		237.736531		440.744002		-0.265645		1.309499		1.928369		-2.576104		14.062682		26.071073		
1.109399		-0.000000		0.000000		0.000000		0.163167		0.000000		0.201347		0.000000		0.000000		-0.000000		-0.000000		0.000000		0.000000		-0.130545		0.000000		0.244507		0.000000		-0.000000		0.000000		20.765962		52.360193		72.429725		0.374292		1.309609		1.918344		-1.092581		-2.755002		-3.810987		-42.986355		229.633100		435.715993		-0.265677		1.309538		1.928154		-2.552592		13.635941		25.873445		
1.112556		-0.000000		0.000000		0.000000		0.163167		0.000000		0.201347		0.000000		0.000000		-0.000000		-0.000000		-0.000000		-0.000000		-0.130545		0.000000		0.244507		-0.000000		0.000000		-0.000000		20.719533		38.377473		53.187069		0.374290		1.309584		1.918195		-1.025758		-1.900096		-2.633328		-42.435863		221.597368		429.609482		-0.265716		1.309583		1.927932		-2.528530		13.203818		25.598166		
